<svg xmlns="http://www.w3.org/2000/svg" width="281.551" height="105" viewBox="0 0 281.551 105"><defs><style>.a{fill:#86007d;}</style></defs><path class="a" d="M325.732,432.622c-2.651-1.8-16.536-14.375-16.746-36.092-.126-14.287,8.668-28.486,18.682-28.486s25.162,31.388,27.56,45.543c.252,1.539.547,6.33,1.052,2.814s8.163-42.774,26.214-48.357l.589-.044,204.03.044v104.89H383.882a3.686,3.686,0,0,1-1.388,0c-20.87-8.836-25.961-29.542-26.214-34.377-.252-.484-.8,2.418-1.052,3.517-1.557,6.111-14.643,24.53-18.3,26.9a26.6,26.6,0,0,1-14.264,4c-4.965-.22-18.64-8.221-16.957-19.431C307.3,442.293,318.537,434.688,325.732,432.622Z" transform="translate(-305.561 -368)"/></svg>