<svg xmlns="http://www.w3.org/2000/svg" width="25.977" height="48.048" viewBox="0 0 25.977 48.048"><defs><style>.a{fill:#fff;}</style></defs><g transform="translate(-22.077)"><g transform="translate(22.077)"><path class="a" d="M47.076.01,40.845,0c-7,0-11.524,4.641-11.524,11.825v5.452H23.057a.98.98,0,0,0-.98.98v7.9a.98.98,0,0,0,.98.98h6.265V47.068a.979.979,0,0,0,.98.98h8.174a.98.98,0,0,0,.98-.98V27.136h7.325a.979.979,0,0,0,.98-.98l0-7.9a.98.98,0,0,0-.98-.98H39.455V12.655c0-2.221.529-3.349,3.423-3.349h4.2a.98.98,0,0,0,.979-.98V.99A.98.98,0,0,0,47.076.01Z" transform="translate(-22.077)"/></g></g></svg>