<svg xmlns="http://www.w3.org/2000/svg" width="56.5" height="56.5" viewBox="0 0 56.5 56.5"><defs><style>.a{fill:#fff;}</style></defs><path class="a" d="M40.908,0H15.592A15.61,15.61,0,0,0,0,15.592V40.908A15.609,15.609,0,0,0,15.592,56.5H40.908A15.61,15.61,0,0,0,56.5,40.908V15.592A15.61,15.61,0,0,0,40.908,0Zm10.58,40.908A10.591,10.591,0,0,1,40.908,51.487H15.592A10.591,10.591,0,0,1,5.013,40.908V15.592A10.591,10.591,0,0,1,15.592,5.013H40.908A10.591,10.591,0,0,1,51.487,15.592V40.908Z"/><path class="a" d="M55.527,40.97A14.558,14.558,0,1,0,70.085,55.529,14.575,14.575,0,0,0,55.527,40.97Zm0,24.1a9.545,9.545,0,1,1,9.546-9.545A9.556,9.556,0,0,1,55.527,65.073Z" transform="translate(-27.277 -27.278)"/><path class="a" d="M122.6,28.251a3.674,3.674,0,1,0,2.6,1.076A3.691,3.691,0,0,0,122.6,28.251Z" transform="translate(-79.178 -18.81)"/></svg>