<svg xmlns="http://www.w3.org/2000/svg" width="33.795" height="33.795" viewBox="0 0 33.795 33.795"><defs><style>.a{fill:#86007d;}</style></defs><path class="a" d="M16.9,0A16.9,16.9,0,1,0,33.8,16.9,16.917,16.917,0,0,0,16.9,0Zm0,32.5A15.6,15.6,0,1,1,32.5,16.9,15.616,15.616,0,0,1,16.9,32.5Z"/><path class="a" d="M28.808,16.19a.649.649,0,0,0-.919,0L22.5,21.58l-5.39-5.39a.65.65,0,0,0-.919.919l5.39,5.39-5.39,5.39a.65.65,0,1,0,.919.919l5.39-5.39,5.39,5.39a.65.65,0,0,0,.919-.919l-5.39-5.39,5.39-5.39A.649.649,0,0,0,28.808,16.19Z" transform="translate(-5.601 -5.601)"/></svg>