<svg xmlns="http://www.w3.org/2000/svg" width="1864.499" height="990.792" viewBox="0 0 1864.499 990.792"><defs><style>.a,.ac{fill:#6ac8ff;}.a{opacity:0.78;}.b{fill:#c71fbd;}.c{fill:#fd5f53;}.d{fill:#1f8ff4;}.e{fill:#e0417d;}.f{fill:#999;}.g{fill:#c69c6d;}.h,.k{fill:#4d4d4d;}.ab,.i,.l,.r{fill:none;}.i,.k,.l,.y{stroke:#000;}.aa,.ab,.i,.k,.l,.r,.y{stroke-miterlimit:10;}.i{stroke-width:10px;}.j{fill:#ccc;}.m{fill:blue;}.n{fill:#666;}.o{fill:#550010;}.aa,.p{fill:#c1272d;}.q,.z{fill:#ffbfe3;}.r{stroke:#8c6239;stroke-width:0.5px;}.s{fill:#6d00bf;}.t{fill:#d4000b;}.u{fill:#ff8c15;}.v{fill:#fffd15;}.w{fill:#4ebf00;}.x{fill:#0026ff;}.z{opacity:0.51;}.aa{stroke:#9e005d;stroke-width:0.3px;}.ab{stroke:#a67c52;stroke-width:0.2px;opacity:0.49;}</style></defs><g transform="translate(-390.301 -321.772)"><path class="a" d="M1096.491,802.252c28.875,111.073,130.559,124.536,122.41,217.185-4.96,55.8-46.945,109.124-99.558,135.165-59.345,29.407-92.826,4.783-173.607,16.829C780.1,1196.41,743.077,1326.261,649.72,1311.38c-66.077-10.452-110.01-85.386-122.411-137.645-23.915-101.33,67.14-135.342,48.362-236.495-15.943-85.918-85.74-83.792-113.907-183.527-26.218-93,11.869-174.315,34.19-222.146,28.521-60.939,71.391-152.349,179.275-190.613,18.778-6.732,98.318-34.9,170.772-7.263,58.991,22.5,55.448,59.7,136.582,120.285,76,56.688,99.381,39.327,128.079,75.289C1170.894,604.73,1063.719,676.653,1096.491,802.252Z" transform="translate(48.289 0)"/><path class="b" d="M651.6,434.553c-65.191-14.7-142.428,47.83-187.424,93.712-96.724,98.672-87.512,223.74-34.9,274.4,40.744,39.327,104.7,38.973,113.2,38.441,64.128-3.366,75.466-34.013,129.674-37.556,80.957-5.315,97.609,67.14,187.424,78.832,63.6,8.326,162.092-14.349,191.5-89.106,29.052-73.871-25.51-158.372-66.431-183.527-7.263-4.429-15.943-7.44-33.127-13.818-95.129-34.9-131.8-22.5-178.744-42.339C691.985,520.293,716.078,449.256,651.6,434.553Z" transform="translate(0 85.322)"/><path class="c" d="M471.385,710.711c52.791-51.551,115.5-68.026,130.559-71.923,67.14-16.652,84.146-.354,253.5,4.429,116.919,3.189,147.389-3.366,170.6,21.435,32.418,34.721,23.738,102.747-10.806,137.645-30.292,30.647-72.986,27.99-119.93,31.356-201.419,14.7-218.071,125.068-335.7,83.26-58.1-20.549-122.233-71.746-133.571-117.982C417.531,763.325,442.509,739.055,471.385,710.711Z" transform="translate(26.268 238.929)"/><path class="d" d="M1015.479,340.04c-15.058-.354-64.483-1.772-96.724,43.933-6.377,9.035-13.995,26.218-29.053,60.94-21.081,49.07-24.624,70.328-46.413,97.255-67.317,83.437-112.667-23.915-154.652,45.882C648.6,654.658,847.718,886.7,918.755,847.375c17.021-65.069,144.554-124.338,169.709-133.2a117.011,117.011,0,0,0,42.516-24.624c7.086-6.555,48.362-44.642,59.168-104.7C1210.521,470.776,1109.368,342.52,1015.479,340.04Z" transform="translate(217.932 68.023)"/><path class="e" d="M1101,659.871c-45.173-16.652-71.391,37.556-142.96,31.356-91.409-8.149-111.427-101.507-181.756-98.5-62.711,2.657-118.69,80.957-128.256,152.88-13.109,98.849,106.821,147.92,181.224,178.213,47.476,19.486,246.77,100.975,318.338-.354C1206.053,840.741,1168.852,684.849,1101,659.871Z" transform="translate(198.074 208.989)"/><ellipse class="f" cx="250.49" cy="40.036" rx="250.49" ry="40.036" transform="translate(667.007 986.842)"/><path class="g" d="M607.639,552.69s-4.074,11.338-10.629,15.412-16.829,5.492-16.829,5.492-10.983.531-12.223-3.366a1.941,1.941,0,0,1,0-1.417c.709-3.012,9.566-28.344,25.155-26.572C600.731,543.124,605.691,549.856,607.639,552.69Z" transform="translate(136.959 170.021)"/><path class="g" d="M769.9,567.492c13.641,17.184,22.144,24.978,25.864,23.029a3.424,3.424,0,0,0,1.594-2.126c-3.366-4.074-6.2-8.68-4.783-11.692,2.126-4.252,10.629-1.949,11.869-5.137,1.594-4.074-8.68-15.766-20.018-14.526C775.391,558.1,770.431,566.429,769.9,567.492Z" transform="translate(292.86 181.438)"/><path class="h" d="M586.543,714.663s.531-8.149,5.492-12.4,10.452-1.063,10.452-1.063,4.252,2.3,6.2,9.035,0,13.995,0,13.995-2.657,6.732-5.669,8.149-4.96,1.948-8.857.709-6.377-8.5-6.377-8.5S586.012,718.561,586.543,714.663Z" transform="translate(151.324 291.842)"/><ellipse class="i" cx="18.778" cy="20.372" rx="18.778" ry="20.372" transform="translate(730.604 986.842)"/><path class="j" d="M595.3,689.013s4.252-56.688,43.4-85.918,82.552-7.795,82.552-7.795,33.127,16.3,48.539,62.711,0,96.192,0,96.192-20.372,46.413-44.287,56.688c-23.738,10.275-39.15,13.818-70.506,5.137-31.533-8.5-51.019-59.168-51.019-59.168S590.161,715.408,595.3,689.013Z" transform="translate(157.272 205.18)"/><path class="k" d="M641.573,657.289s.531-6.555,5.669-9.92,10.983-.886,10.983-.886a13.222,13.222,0,0,1,6.377,7.263c1.949,5.314,0,11.16,0,11.16s-2.657,5.314-5.846,6.555-5.137,1.594-9.389.532-6.732-6.909-6.732-6.909S640.864,660.3,641.573,657.289Z" transform="translate(193.727 249.835)"/><path class="l" d="M650.9,680.431,689.342,601.6Z" transform="translate(201.052 215.887)"/><path class="l" d="M662.765,681.926Q640.444,641.8,618.3,601.5,640.355,641.89,662.765,681.926Z" transform="translate(175.901 215.81)"/><path class="l" d="M655.4,653.5h0Z" transform="translate(204.523 255.927)"/><path class="l" d="M654.8,660.8l-22.5,90.878Z" transform="translate(186.702 261.559)"/><path class="l" d="M652.1,660.4l46.768,66.963Z" transform="translate(201.977 261.251)"/><path class="l" d="M650.9,629.8s23.029,6.555,23.384,30.293" transform="translate(201.052 237.643)"/><path class="l" d="M656.9,627.9l3.012.886S673.2,634.1,674.083,646.5" transform="translate(205.681 236.177)"/><path class="l" d="M649.084,690.292S626.054,683.915,625.7,660" transform="translate(181.61 260.942)"/><path class="l" d="M636.966,685.741l-3.012-1.063S621.2,678.3,621.2,665.9" transform="translate(178.138 265.494)"/><ellipse class="i" cx="91.409" cy="117.273" rx="91.409" ry="117.273" transform="translate(750.976 791.623)"/><path class="l" d="M597.4,655.857c26.041-.886,51.9-1.771,77.946-2.657C649.482,654.086,623.441,654.971,597.4,655.857Z" transform="translate(159.777 255.696)"/><path class="j" d="M689.787,700.759s4.606-61.117,47.3-92.649,89.815-8.326,89.815-8.326,36.139,17.538,52.791,67.494,0,103.632,0,103.632-22.321,49.956-48.185,61.117-42.693,14.881-76.883,5.492C720.257,828.306,699,773.567,699,773.567S683.941,729.28,689.787,700.759Z" transform="translate(230.013 208.137)"/><path class="m" d="M647.1,627.212l1.771,13.109h20.2L667.295,624.2Z" transform="translate(198.12 233.323)"/><path class="n" d="M599.024,629.877c-.177-.177-.531-.177-4.252-.177h-3.366c-.177.886-1.594,12.755.177,13.109h1.949a6.708,6.708,0,0,0,1.417-.177C597.253,642.278,601.859,631.826,599.024,629.877Z" transform="translate(154.609 237.566)"/><path class="n" d="M677.176,694.1c-13.818,12.4-27.458,24.8-41.276,37.379,3.72,3.9,7.617,7.795,11.338,11.692,13.286-12.755,26.75-25.51,40.036-38.264C683.908,701.363,680.542,697.643,677.176,694.1Z" transform="translate(189.479 287.25)"/><path class="m" d="M721.291,577.7l-131.091.531.177,92.472,49.07.354s12.046-61.825,88.929-68.734Z" transform="translate(154.222 197.448)"/><path class="m" d="M768.9,490.7H716.286L703,555.005h73.517C774.037,533.57,771.38,512.135,768.9,490.7Z" transform="translate(241.247 130.328)"/><path class="h" d="M701.508,716.163c-36.316-2.48-72.808-4.783-109.124-7.263a25.948,25.948,0,0,0-9.92,4.606,25.09,25.09,0,0,0-7.263,9.566c34.544,4.429,69.088,8.68,103.633,13.109a42.639,42.639,0,0,0,15.589-10.1A37.38,37.38,0,0,0,701.508,716.163Z" transform="translate(142.649 298.668)"/><path class="k" d="M740.2,666.565s.531-7.086,6.2-10.629c5.669-3.72,11.869-.886,11.869-.886a13.672,13.672,0,0,1,6.909,7.795c2.126,5.846,0,12.046,0,12.046s-3.012,5.846-6.377,7.086a14.785,14.785,0,0,1-10.1.708c-4.606-1.063-7.44-7.44-7.44-7.44S739.315,669.93,740.2,666.565Z" transform="translate(269.768 256.326)"/><path class="l" d="M750.3,691.532,792.284,606.5Z" transform="translate(277.738 219.667)"/><path class="o" d="M648.893,700.793S600,695.3,600,715.674s27.458,14.881,27.458,14.881l42.516.709v-18.6Z" transform="translate(161.782 291.894)"/><path class="l" d="M763.239,693.126C747.118,664.251,730.82,635.375,714.7,606.5Q738.881,649.813,763.239,693.126Z" transform="translate(250.273 219.667)"/><path class="l" d="M755.2,662.6h0Z" transform="translate(281.519 262.948)"/><path class="l" d="M754.447,670.4,730,768.364Z" transform="translate(262.077 268.966)"/><path class="l" d="M751.6,669.9l51.019,72.277Z" transform="translate(278.741 268.58)"/><path class="l" d="M750.3,637s24.978,6.909,25.51,32.6" transform="translate(277.738 243.198)"/><path class="l" d="M756.8,634.9l3.366,1.063s14.349,5.669,15.412,19.132" transform="translate(282.753 241.578)"/><path class="l" d="M748.309,702.1s-25.155-6.909-25.51-32.6" transform="translate(256.522 268.272)"/><path class="l" d="M735.084,697.235l-3.366-1.24s-13.995-6.909-13.818-20.2" transform="translate(252.741 273.132)"/><path class="n" d="M780.716,488.046c-1.417,1.24-3.189.886-10.275.531-4.252-.177-7.795-.354-9.92-.531-1.949,0-4.783.177-6.732,2.126-2.657,2.48-2.657,6.555-2.48,7.972.177,7.44.531,77.769,1.063,175.378a7.261,7.261,0,0,1-7.086,7.263h0A7.107,7.107,0,0,1,738.2,673.7V494.069a18.866,18.866,0,0,1,6.2-13.286,19.129,19.129,0,0,1,13.463-4.429h.709L775.4,476a7.045,7.045,0,0,1,7.263,6.555C782.31,484.857,782.133,486.806,780.716,488.046Z" transform="translate(268.403 118.987)"/><path d="M702.157,597.344a93.106,93.106,0,0,0-28.7-1.417c-8.5.886-20.372,5.315-44.11,13.995-10.452,3.9-14.881,5.669-19.664,10.1-6.909,6.377-10.1,13.995-12.223,19.309a80.882,80.882,0,0,0-5.315,21.967c-3.189,26.572-1.771,47.653-1.771,86.095h0c-.886,24.8-1.24,37.2,9.212,42.693,10.806,5.669,27.1,1.949,36.847-.886q2.392-59.788,4.606-119.576S641.218,645,665.487,645c17.006-8.149,34.19-16.3,51.2-24.447-18.778,3.366-37.733,6.555-56.511,9.92A42.346,42.346,0,0,0,647.064,641.1a36.541,36.541,0,0,0-7.617,14.172c-.532,1.949-.354,2.126-1.063,7.086-1.063,7.086-2.126,12.223-2.48,13.641-3.366,15.943,2.3,52.436-.531,90.878-1.063,13.463-2.3,17.892,1.24,22.5,9.212,11.869,36.316,5.846,52.614.886-1.24-35.253-2.657-70.328-3.9-105.581-.709-4.252-1.772-17.006,9.389-25.864,6.2-4.783,13.641-6.555,22.144-8.149,13.995-2.48,36.67-5.314,67.14-3.9,2.126-7.263,4.429-14.349,6.555-21.612Q746.179,611.339,702.157,597.344Z" transform="translate(154.046 211.108)"/><path class="l" d="M643.6,548.2" transform="translate(195.42 174.689)"/><path class="n" d="M695.781,550.2c-4.252-.354-57.042-3.9-83.969-1.417-4.606.354-11.692,1.24-17.892,6.377A28.95,28.95,0,0,0,584,572.7V706.267c4.252-.177,8.68-.354,12.932-.531L596.755,575a14.827,14.827,0,0,1,3.72-7.795c5.137-5.669,13.818-5.315,17.361-5.137,13.109.354,39.682,0,75.289-.531C693.833,557.816,694.9,554.1,695.781,550.2Z" transform="translate(149.438 174.462)"/><path class="p" d="M809.888,720.278c3.366-31.178,6.554-63.6,9.743-100.089.354-3.9.354-4.606.531-5.846a4.906,4.906,0,0,1,.177-1.417c2.48-28.521-2.834-63.774-2.834-63.774-2.48-16.121-4.96-25.51-3.189-26.041,1.417-.531,3.72,5.314,9.212,13.286,6.555,9.743,10.629,13.818,21.612,24.092,1.24,1.24,8.68,9.389,23.03,26.218,29.23,34.013,39.327,48.539,49.07,46.413,2.657-.531,12.046-3.72,21.789-9.92h0c-2.126-2.657-5.314-6.732-9.389-11.869-22.675-27.99-30.647-34.19-55.271-62.357-13.109-14.881-26.75-29.23-39.327-44.642a91.561,91.561,0,0,0-20.018-18.778,93.366,93.366,0,0,0-21.081-10.983c-6.732-.709-13.641-1.417-20.372-2.126-13.109-.531-23.915-.354-31.71,0-17.892.709-23.207,1.949-26.041,3.012a62.441,62.441,0,0,0-24.092,13.818c-23.561,21.081-43.579,37.733-57.928,49.6-24.092,19.664-58.991,47.476-54.208,56.865.709,1.417,1.949,1.417,9.212,6.909,4.96,3.9,8.858,7.263,11.16,9.389,36.139-30.115,72.277-60.408,108.593-90.523a438.185,438.185,0,0,1-7.795,82.729,428.443,428.443,0,0,1-26.927,88.4C719.01,701.5,764.36,710.89,809.888,720.278Z" transform="translate(145.696 115.986)"/><path class="m" d="M795.091,577.7,664,578.231l.177,92.472,49.07.354s12.046-61.825,88.929-68.734Z" transform="translate(211.158 197.448)"/><path class="n" d="M679.2,634.09V601.672c0-17.184,0-23.561,4.252-29.407,6.023-7.972,16.475-9.743,22.675-10.275,34.721,0,69.443,0,104.164.177,2.3-3.543,4.429-8.149,2.834-11.338-1.949-3.72-11.338-3.72-29.938-3.366-24.447.531-26.927.531-34.367.531-10.983,0-10.806-.531-19.309-.354-10.1.177-17.538.354-26.218,2.3-10.983,2.3-20.018,4.252-27.458,11.515-10.1,9.92-10.983,23.561-11.16,29.053V693.435c-1.063,0-2.657.177-4.606.177-2.834.177-4.252.177-4.252.177-4.429.709-7.263,5.315-9.035,8.326a27.928,27.928,0,0,0-2.48,5.137c10.452-.354,20.9-.709,31.533-1.063h48.539c1.417-3.9,2.657-7.795,4.074-11.692l-49.07-.354C680.439,667.926,679.907,647.908,679.2,634.09Z" transform="translate(195.96 174.007)"/><ellipse class="i" cx="99.558" cy="126.308" rx="99.558" ry="126.308" transform="translate(918.028 798.532)"/><path class="l" d="M692,665.034c28.344-.886,56.688-1.948,85.032-2.834C748.688,663.086,720.344,663.971,692,665.034Z" transform="translate(232.76 262.64)"/><path d="M593.1,629.6" transform="translate(156.459 237.489)"/><path class="n" d="M656.549,636.7c-.709,43.756-1.417,87.335-1.949,131.091h16.652c.177-43.579.354-86.98.531-130.559C666.646,637.054,661.509,636.877,656.549,636.7Z" transform="translate(203.906 242.966)"/><path class="h" d="M660.543,725.363s.531-8.149,5.491-12.4,10.452-1.063,10.452-1.063,4.252,2.3,6.2,9.035,0,13.995,0,13.995-2.657,6.732-5.669,8.149-4.96,1.948-8.857.709-6.378-8.5-6.378-8.5S660.012,729.083,660.543,725.363Z" transform="translate(208.415 300.097)"/><ellipse class="i" cx="18.778" cy="20.372" rx="18.778" ry="20.372" transform="translate(861.695 1005.62)"/><path class="n" d="M585.417,634.5c-.531,43.756-.886,87.335-1.417,131.091h11.692c.177-43.579.177-86.98.354-130.559Z" transform="translate(149.438 241.269)"/><path class="n" d="M585.2,709.423c5.314,3.366,10.629,6.732,15.766,10.1,1.24-2.3,2.48-4.606,3.9-6.732-5.314-3.189-10.806-6.2-16.121-9.389C587.68,705.171,586.44,707.3,585.2,709.423Z" transform="translate(150.364 294.425)"/><path class="q" d="M646.7,445.1" transform="translate(197.811 95.147)"/><path class="o" d="M615.3,703.681s-38.8-3.366-38.8,9.035c0,12.578,21.789,9.212,21.789,9.212l33.658.354V710.767Z" transform="translate(143.652 294.321)"/><path class="r" d="M639.5,461.7" transform="translate(192.256 107.954)"/><path class="s" d="M787.077,512.675a60.128,60.128,0,0,1,12.755.886c6.732,1.24,9.035,2.834,13.641,2.48,5.669-.354,8.149-3.189,12.4-4.96,5.137-2.126,13.286-3.012,26.927,3.543,0,3.012.177,6.023.177,9.035-11.515-6.909-19.309-6.732-24.447-5.315-6.732,2.126-9.566,7.086-16.475,6.2-3.189-.354-4.96-1.771-12.4-3.012a32.992,32.992,0,0,0-5.846-.709c-3.9,0-6.023.886-6.909-.354-.532-.531,0-1.24.177-3.543A16.932,16.932,0,0,0,787.077,512.675Z" transform="translate(305.798 144.846)"/><path class="t" d="M786.6,517.192a62.325,62.325,0,0,1,12.932.886c6.732,1.24,9.035,2.834,13.818,2.48,5.846-.354,8.326-3.366,12.4-5.137,5.137-2.3,13.463-3.189,27.281,4.074v9.035c-11.16-6.377-19.132-6.555-24.624-5.492-7.263,1.594-8.5,5.137-16.475,5.492-8.149.354-9.389-3.366-18.424-2.834-1.594.177-5.846.531-6.732-1.417a7.413,7.413,0,0,1-.177-2.48A39.646,39.646,0,0,0,786.6,517.192Z" transform="translate(305.744 148.123)"/><path class="u" d="M786.6,521.364a62.32,62.32,0,0,1,12.932.886c6.732,1.24,9.035,2.834,13.818,2.48,5.846-.354,8.326-3.189,12.4-4.96,5.137-2.126,13.463-3.012,27.281,3.9v8.68c-11.16-6.2-19.132-6.377-24.624-5.314-7.263,1.417-8.5,4.96-16.475,5.137-8.149.354-9.389-3.189-18.424-2.657-1.594.177-5.846.531-6.732-1.417a7.413,7.413,0,0,1-.177-2.48A33.744,33.744,0,0,0,786.6,521.364Z" transform="translate(305.744 151.569)"/><path class="v" d="M786.6,525.364a62.32,62.32,0,0,1,12.932.886c6.732,1.24,9.035,2.834,13.818,2.48,5.846-.354,8.326-3.189,12.4-4.96,5.137-2.126,13.463-3.011,27.281,3.9v8.68c-11.16-6.2-19.132-6.377-24.624-5.315-7.263,1.417-8.5,4.96-16.475,5.137-8.149.354-9.389-3.189-18.424-2.657-1.594.177-5.846.531-6.732-1.417a7.412,7.412,0,0,1-.177-2.48A33.743,33.743,0,0,0,786.6,525.364Z" transform="translate(305.744 154.655)"/><path class="w" d="M786.6,529.364a62.321,62.321,0,0,1,12.932.886c6.732,1.24,9.035,2.834,13.818,2.48,5.846-.354,8.326-3.189,12.4-4.96,5.137-2.126,13.463-3.012,27.281,3.9v8.68c-11.16-6.2-19.132-6.377-24.624-5.315-7.263,1.417-8.5,4.96-16.475,5.137-8.149.354-9.389-3.189-18.424-2.657-1.594.177-5.846.531-6.732-1.417a7.411,7.411,0,0,1-.177-2.48A33.745,33.745,0,0,0,786.6,529.364Z" transform="translate(305.744 157.741)"/><path class="x" d="M786.7,533.364a62.318,62.318,0,0,1,12.932.886c6.732,1.24,9.035,2.834,13.818,2.48,5.846-.354,8.326-3.189,12.4-4.96,5.137-2.126,13.463-3.012,27.281,3.9v8.68c-11.16-6.2-19.132-6.377-24.624-5.314-7.263,1.417-8.5,4.96-16.475,5.137-8.149.354-9.389-3.189-18.424-2.657-1.594.177-5.846.531-6.732-1.417a7.408,7.408,0,0,1-.177-2.48Z" transform="translate(305.821 160.827)"/><path class="h" d="M783.6,641.051V511.2h6.023V641.051c-.354,1.949-1.771,3.189-3.189,3.012A3.586,3.586,0,0,1,783.6,641.051Z" transform="translate(303.429 146.143)"/><path class="g" d="M794.936,565.2s4.074,15.412,0,15.766a55.125,55.125,0,0,0-7.086,1.063s-8.857-10.629-4.783-11.692l1.594-1.771Z" transform="translate(302.191 187.804)"/><path class="y" d="M652.537,427.414c-6.555,2.3-5.492,21.081-4.96,33.658a115.548,115.548,0,0,0,10.275,42.162c5.137-1.063,12.046-2.657,20.2-5.137,7.972-2.48,11.869-3.72,13.286-5.315C701.962,480.2,665.115,422.808,652.537,427.414Z" transform="translate(198.174 81.301)"/><path class="g" d="M686.822,519.769c-.531-1.063-.886-3.9-1.417-9.566-.354-2.834-.531-4.96-.709-6.555-11.338,3.72-17.715,1.771-21.081,0-15.943-8.68-18.424-43.756-3.012-87.512,3.9-1.772,21.79-9.743,39.859-2.126,20.727,8.857,33.481,34.721,27.99,62.534a109.6,109.6,0,0,1-9.566,22.144,35.459,35.459,0,0,0-1.063,14.881c.532,3.543,1.24,4.429.709,6.023C715.7,527.032,690.9,527.741,686.822,519.769Z" transform="translate(200.559 68.663)"/><path d="M660.162,444.585c1.24-3.9,2.48-7.972,3.9-11.869V444.23h11.869c.531-1.949,1.063-4.074,1.594-6.023.354,1.949.709,4.074.886,6.023l13.641,1.24a17.855,17.855,0,0,1,8.857,7.972,17.032,17.032,0,0,1,1.594,8.326c-.354,7.795-1.594,28.875-3.9,57.042,12.755-6.555,25.332-13.286,38.087-19.841a208.089,208.089,0,0,0,1.772-29.407,204.615,204.615,0,0,0-3.72-36.138c-1.24-2.657-11.16-23.207-33.658-27.99-19.664-4.252-39.15,5.669-47.653,18.6-.709,1.063-9.035,13.641-4.429,18.955C651.659,446.179,658.036,445.116,660.162,444.585Z" transform="translate(198.521 63.776)"/><circle class="z" cx="5.492" cy="5.492" r="5.492" transform="translate(883.839 535.464)"/><path class="z" d="M655.892,447.126c0,2.657-2.834,3.72-3.9,3.9-.531,0-1.417,0-1.417-.177v-1.594c-.177-1.24,0-1.771-.177-3.189v-2.126c.354-.531,1.594-.531,1.771-.531A3.724,3.724,0,0,1,655.892,447.126Z" transform="translate(200.666 93.83)"/><path d="M653.9,438.716a8.51,8.51,0,0,0,5.492,1.771,9.277,9.277,0,0,0,5.669-1.771,19.166,19.166,0,0,1-4.429.709,15.424,15.424,0,0,1-3.366-.177C654.963,439.07,653.9,438.538,653.9,438.716Z" transform="translate(203.366 90.194)"/><path d="M665.189,434.1h8.68c2.126,1.063,3.366,1.594,3.189,1.771,0,.177-1.063-.177-3.012-.886a16.808,16.808,0,0,0-4.252,0,16.211,16.211,0,0,0-3.012.177c-.709.177-1.24.354-1.594,0C664.835,434.986,665.012,434.454,665.189,434.1Z" transform="translate(211.918 86.661)"/><path d="M665.476,434.2H656.8a13.139,13.139,0,0,0-3.189,1.594c0,.177,1.063-.177,3.012-.886a16.808,16.808,0,0,1,4.252,0,19.257,19.257,0,0,1,3.189.177c.709.177,1.24.354,1.594,0C665.654,434.909,665.476,434.377,665.476,434.2Z" transform="translate(203.127 86.738)"/><path d="M677.786,438.615a11.1,11.1,0,0,1-6.555,1.949,11.335,11.335,0,0,1-6.732-1.949,37.09,37.09,0,0,0,5.137.886,23.96,23.96,0,0,0,4.075-.177C676.369,438.97,677.609,438.438,677.786,438.615Z" transform="translate(211.544 90.117)"/><path class="aa" d="M657.127,454.7c-.354.531.886,2.48,2.3,3.366,2.834,1.949,6.732.531,9.212-.354,1.594-.531,2.834-1.417,5.314-3.012,1.063-.709,1.417-1.063,1.417-1.24,0-.354-1.063-.531-5.669-.177-9.566.709-9.92,1.417-11.692,1.24C657.835,454.524,657.3,454.347,657.127,454.7Z" transform="translate(205.808 101.312)"/><path class="r" d="M663.506,440c0,1.594,0,3.189-.177,5.137-.177,1.772-.354,3.543-.531,4.96-.354,0-3.72.531-3.9,1.949v.354c.531,1.594,3.189,2.48,3.72,2.657" transform="translate(207.224 91.213)"/><path class="aa" d="M656.7,455.7c2.657,0,5.314-.177,8.149-.354,3.72-.354,7.263-.709,10.452-1.063a49.184,49.184,0,0,1-4.783-1.594,7.188,7.188,0,0,0-3.012-.886,5.377,5.377,0,0,0-3.012,1.063,3.541,3.541,0,0,0-2.48-1.063A4.282,4.282,0,0,0,659,453.04,30.775,30.775,0,0,0,656.7,455.7Z" transform="translate(205.526 100.316)"/><path class="ab" d="M664,448.3s9.389,3.189,10.452,9.389" transform="translate(211.158 97.616)"/><path class="m" d="M759.216,476.278a16.15,16.15,0,0,0-3.012,9.743,15.07,15.07,0,0,0,3.366,8.857A130.328,130.328,0,0,0,787.56,497a141.278,141.278,0,0,0,25.332-2.834,13.206,13.206,0,0,0,2.834-9.389,13,13,0,0,0-3.366-7.263,75.635,75.635,0,0,0-29.053-5.314A78.28,78.28,0,0,0,759.216,476.278Z" transform="translate(282.286 116.052)"/><path class="ac" d="M1442.8,563" transform="translate(812 186.107)"/></g></svg>