<svg xmlns="http://www.w3.org/2000/svg" width="1042.1025640022435" height="1009.5384639461599"><rect id="backgroundrect" width="100%" height="100%" x="0" y="0" fill="none" stroke="none"/><defs><style>.a,.ac{fill:#6ac8ff;}.a{opacity:0.78;}.b{fill:#c71fbd;}.c{fill:#fd5f53;}.d{fill:#1f8ff4;}.e{fill:#e0417d;}.f{fill:#999;}.g{fill:#c69c6d;}.h,.k{fill:#4d4d4d;}.ab,.i,.l,.r{fill:none;}.i,.k,.l,.y{stroke:#000;}.aa,.ab,.i,.k,.l,.r,.y{stroke-miterlimit:10;}.i{stroke-width:10px;}.j{fill:#ccc;}.m{fill:blue;}.n{fill:#666;}.o{fill:#550010;}.aa,.p{fill:#c1272d;}.q,.z{fill:#ffbfe3;}.r{stroke:#8c6239;stroke-width:0.5px;}.s{fill:#6d00bf;}.t{fill:#d4000b;}.u{fill:#ff8c15;}.v{fill:#fffd15;}.w{fill:#4ebf00;}.x{fill:#0026ff;}.z{opacity:0.51;}.aa{stroke:#9e005d;stroke-width:0.3px;}.ab{stroke:#a67c52;stroke-width:0.2px;opacity:0.49;}</style></defs><g class="currentLayer" style=""><title>Layer 1</title><g id="svg_1" class="selected"><path class="a" d="M761.0431087646484,488.3334771652221 c28.875,111.073 130.559,124.536 122.41,217.185 c-4.96,55.8 -46.945,109.124 -99.558,135.165 c-59.345,29.407 -92.826,4.783 -173.607,16.829 C444.65210876464846,882.4914771652222 407.62910876464844,1012.3424771652221 314.27210876464846,997.4614771652223 c-66.077,-10.452 -110.01,-85.386 -122.411,-137.645 c-23.915,-101.33 67.14,-135.342 48.362,-236.495 c-15.943,-85.918 -85.74,-83.792 -113.907,-183.527 c-26.218,-93 11.869,-174.315 34.19,-222.146 c28.521,-60.939 71.391,-152.349 179.275,-190.613 c18.778,-6.732 98.318,-34.9 170.772,-7.263 c58.991,22.5 55.448,59.7 136.582,120.285 c76,56.688 99.381,39.327 128.079,75.289 C835.4461087646484,290.8114771652222 728.2711087646485,362.7344771652222 761.0431087646484,488.3334771652221 z" id="svg_2"/><path class="b" d="M267.8631072998047,205.95647576141357 c-65.191,-14.7 -142.428,47.83 -187.424,93.712 c-96.724,98.672 -87.512,223.74 -34.9,274.4 c40.744,39.327 104.7,38.973 113.2,38.441 c64.128,-3.366 75.466,-34.013 129.674,-37.556 c80.957,-5.315 97.609,67.14 187.424,78.832 c63.6,8.326 162.092,-14.349 191.5,-89.106 c29.052,-73.871 -25.51,-158.372 -66.431,-183.527 c-7.263,-4.429 -15.943,-7.44 -33.127,-13.818 c-95.129,-34.9 -131.8,-22.5 -178.744,-42.339 C308.2481072998047,291.6964757614136 332.34110729980466,220.65947576141355 267.8631072998047,205.95647576141357 z" id="svg_3"/><path class="c" d="M113.91610694885253,635.7214780197144 c52.791,-51.551 115.5,-68.026 130.559,-71.923 c67.14,-16.652 84.146,-0.3540000000000002 253.5,4.429 c116.919,3.189 147.389,-3.366 170.6,21.435 c32.418,34.721000000000004 23.738,102.747 -10.806000000000001,137.645 c-30.292,30.647 -72.986,27.99 -119.93,31.356 c-201.419,14.7 -218.071,125.068 -335.7,83.26 c-58.1,-20.549 -122.233,-71.746 -133.571,-117.982 C60.062106948852545,688.3354780197144 85.04010694885255,664.0654780197143 113.91610694885253,635.7214780197144 z" id="svg_4"/><path class="d" d="M849.6741141357422,94.14447978973391 c-15.058,-0.3540000000000002 -64.483,-1.772 -96.724,43.933 c-6.377,9.035 -13.995,26.218 -29.053,60.94 c-21.081,49.07 -24.624,70.328 -46.413,97.255 c-67.317,83.437 -112.667,-23.915 -154.652,45.882 C482.7951141357422,408.7624797897339 681.9131141357421,640.8044797897339 752.9501141357422,601.4794797897339 c17.021,-65.069 144.554,-124.338 169.709,-133.2 a117.011,117.011 0 0 0 42.516,-24.624 c7.086,-6.555 48.362,-44.642 59.168,-104.7 C1044.7161141357421,224.8804797897339 943.5631141357421,96.62447978973387 849.6741141357422,94.14447978973391 z" id="svg_5"/><path class="e" d="M915.3371124267578,554.9414755783081 c-45.173,-16.652 -71.391,37.556 -142.96,31.356 c-91.409,-8.149000000000001 -111.427,-101.507 -181.756,-98.5 c-62.711,2.657 -118.69,80.957 -128.256,152.88 c-13.109,98.849 106.821,147.92 181.224,178.213 c47.476,19.486 246.77,100.975 318.338,-0.3540000000000002 C1020.3901124267579,735.8114755783081 983.1891124267579,579.9194755783082 915.3371124267578,554.9414755783081 z" id="svg_6"/><ellipse class="f" cx="533.7601318359375" cy="712.9594564437866" rx="250.49000549316406" ry="40.0359992980957" id="svg_7"/><path class="g" d="M360.86110693359376,408.7924732589722 s-4.074,11.338000000000001 -10.629,15.412 s-16.829,5.492 -16.829,5.492 s-10.983,0.531 -12.223,-3.366 a1.941,1.941 0 0 1 0,-1.417 c0.7090000000000004,-3.012 9.566,-28.344 25.155,-26.572 C353.95310693359374,399.2264732589722 358.9131069335938,405.95847325897216 360.86110693359376,408.7924732589722 z" id="svg_8"/><path class="g" d="M679.0230926513672,435.0114807052612 c13.641,17.184 22.144,24.978 25.864,23.029 a3.424,3.424 0 0 0 1.594,-2.126 c-3.366,-4.074 -6.2,-8.68 -4.783,-11.692 c2.126,-4.252 10.629,-1.949 11.869,-5.1370000000000005 c1.594,-4.074 -8.68,-15.766 -20.018,-14.526 C684.5140926513672,425.61948070526125 679.5540926513672,433.9484807052612 679.0230926513672,435.0114807052612 z" id="svg_9"/><path class="h" d="M354.1301124267578,692.586487663269 s0.531,-8.149000000000001 5.492,-12.4 s10.452,-1.063 10.452,-1.063 s4.252,2.3 6.2,9.035 s0,13.995 0,13.995 s-2.657,6.732 -5.6690000000000005,8.149000000000001 s-4.96,1.948 -8.857,0.7090000000000004 s-6.377,-8.5 -6.377,-8.5 S353.59911242675776,696.4844876632691 354.1301124267578,692.586487663269 z" id="svg_10"/><ellipse class="i" cx="365.6451110839844" cy="693.2954568862915" rx="18.777999877929688" ry="20.371999740600586" id="svg_11"/><path class="j" d="M368.83511047363277,580.2744698410035 s4.252,-56.688 43.4,-85.918 s82.552,-7.795 82.552,-7.795 s33.127,16.3 48.539,62.711 s0,96.192 0,96.192 s-20.372,46.413 -44.287,56.688 c-23.738,10.275 -39.15,13.818 -70.506,5.1370000000000005 c-31.533,-8.5 -51.019,-59.168 -51.019,-59.168 S363.69611047363276,606.6694698410034 368.83511047363277,580.2744698410035 z" id="svg_12"/><path class="k" d="M451.5631123046875,593.2054838790893 s0.531,-6.555 5.6690000000000005,-9.92 s10.983,-0.8860000000000005 10.983,-0.8860000000000005 a13.222,13.222 0 0 1 6.377,7.263 c1.949,5.314 0,11.16 0,11.16 s-2.657,5.314 -5.846,6.555 s-5.1370000000000005,1.594 -9.389,0.532 s-6.732,-6.909 -6.732,-6.909 S450.85411230468753,596.2164838790893 451.5631123046875,593.2054838790893 z" id="svg_13"/><path class="l" d="M468.21510925292966,582.3994705734253 L506.6571092529297,503.5684705734253 z" id="svg_14"/><path class="l" d="M454.9291082763672,583.817474723816 Q432.60810827636715,543.6914747238159 410.46410827636714,503.3914747238159 Q432.5191082763672,543.7814747238159 454.9291082763672,583.817474723816 z" id="svg_15"/><path class="l" d="M476.18610229492185,595.5084791183472 h0 z" id="svg_16"/><path class="l" d="M457.765103149414,608.4404676437377 l-22.5,90.878 z" id="svg_17"/><path class="l" d="M470.3401123046875,607.7324842453003 l46.768,66.963 z" id="svg_18"/><path class="l" d="M468.21510925292966,553.5244825363159 s23.029,6.555 23.384,30.293 " id="svg_19"/><path class="l" d="M478.84410705566404,550.1584791183471 l3.012,0.8860000000000005 S495.1441070556641,556.3584791183472 496.02710705566403,568.7584791183472 " id="svg_20"/><path class="l" d="M446.9571079101562,637.3154632492066 S423.9271079101562,630.9384632492065 423.5731079101563,607.0234632492065 " id="svg_21"/><path class="l" d="M431.36710778808595,637.3164652023315 l-3.012,-1.063 S415.601107788086,629.8754652023315 415.601107788086,617.4754652023315 " id="svg_22"/><ellipse class="i" cx="458.6481170654297" cy="594.9774656295776" rx="91.40899658203125" ry="117.27300262451172" id="svg_23"/><path class="l" d="M373.4401000976562,597.63447631073 c26.041,-0.8860000000000005 51.9,-1.771 77.946,-2.657 C425.5221000976562,595.86347631073 399.4811000976563,596.74847631073 373.4401000976562,597.63447631073 z" id="svg_24"/><path class="j" d="M536.063107788086,594.9774705734253 s4.606,-61.117 47.3,-92.649 s89.815,-8.326 89.815,-8.326 s36.139,17.538 52.791,67.494 s0,103.632 0,103.632 s-22.321,49.956 -48.185,61.117 s-42.693,14.881 -76.883,5.492 C566.5331077880859,722.5244705734253 545.2761077880859,667.7854705734253 545.2761077880859,667.7854705734253 S530.217107788086,623.4984705734253 536.063107788086,594.9774705734253 z" id="svg_25"/><path class="m" d="M461.4831024169922,546.6164752120972 l1.771,13.109 h20.2 L481.67810241699215,543.6044752120972 z" id="svg_26"/><path class="n" d="M369.8961008300781,553.5244714279174 c-0.1770000000000001,-0.1770000000000001 -0.531,-0.1770000000000001 -4.252,-0.1770000000000001 h-3.366 c-0.1770000000000001,0.8860000000000005 -1.594,12.755 0.1770000000000001,13.109 h1.949 a6.708,6.708 0 0 0 1.417,-0.1770000000000001 C368.12510083007817,565.9254714279175 372.73110083007816,555.4734714279175 369.8961008300781,553.5244714279174 z" id="svg_27"/><path class="n" d="M482.91811120605473,667.4314771652222 c-13.818,12.4 -27.458,24.8 -41.276,37.379 c3.72,3.9 7.617,7.795 11.338000000000001,11.692 c13.286,-12.755 26.75,-25.51 40.036,-38.264 C489.6501112060547,674.6944771652222 486.2841112060547,670.9744771652222 482.91811120605473,667.4314771652222 z" id="svg_28"/><path class="m" d="M491.77610742187505,461.2294752120972 l-131.091,0.531 l0.1770000000000001,92.472 l49.07,0.3540000000000002 s12.046,-61.825 88.929,-68.734 z" id="svg_29"/><path class="m" d="M626.4101013183594,307.10948009490966 H573.7961013183593 L560.5101013183594,371.41448009490966 h73.517 C631.5471013183594,349.9794800949097 628.8901013183594,328.54448009490966 626.4101013183594,307.10948009490966 z" id="svg_30"/><path class="h" d="M460.42010937500004,700.9124764328003 c-36.316,-2.48 -72.808,-4.783 -109.124,-7.263 a25.948,25.948 0 0 0 -9.92,4.606 a25.09,25.09 0 0 0 -7.263,9.566 c34.544,4.429 69.088,8.68 103.633,13.109 a42.639,42.639 0 0 0 15.589,-10.1 A37.38,37.38 0 0 0 460.42010937500004,700.9124764328003 z" id="svg_31"/><path class="k" d="M626.2311126708985,608.9724659347535 s0.531,-7.086 6.2,-10.629 c5.6690000000000005,-3.72 11.869,-0.8860000000000005 11.869,-0.8860000000000005 a13.672,13.672 0 0 1 6.909,7.795 c2.126,5.846 0,12.046 0,12.046 s-3.012,5.846 -6.377,7.086 a14.785,14.785 0 0 1 -10.1,0.7080000000000004 c-4.606,-1.063 -7.44,-7.44 -7.44,-7.44 S625.3461126708985,612.3374659347534 626.2311126708985,608.9724659347535 z" id="svg_32"/><path class="l" d="M644.3011138916015,597.2804846115113 L686.2851138916016,512.2484846115112 z" id="svg_33"/><path class="o" d="M426.9381049804688,678.768489616394 S378.04510498046875,673.275489616394 378.04510498046875,693.649489616394 s27.458,14.881 27.458,14.881 l42.516,0.7090000000000004 v-18.6 z" id="svg_34"/><path class="l" d="M629.7751022949219,598.8744846115112 C613.6541022949219,569.9994846115112 597.3561022949219,541.1234846115112 581.2361022949219,512.2484846115112 Q605.4171022949218,555.5614846115112 629.7751022949219,598.8744846115112 z" id="svg_35"/><path class="l" d="M652.9821197509766,611.6294752120972 h0 z" id="svg_36"/><path class="l" d="M632.7871031494141,625.4474805831909 L608.3401031494141,723.411480583191 z" id="svg_37"/><path class="l" d="M646.6041046142578,624.5614637374878 l51.019,72.277 z" id="svg_38"/><path class="l" d="M644.3011138916015,566.2794752120972 s24.978,6.909 25.51,32.6 " id="svg_39"/><path class="l" d="M655.8160980224609,562.5594800949096 l3.366,1.063 s14.349,5.6690000000000005 15.412,19.132 " id="svg_40"/><path class="l" d="M621.0941104736328,656.4534803390503 s-25.155,-6.909 -25.51,-32.6 " id="svg_41"/><path class="l" d="M604.0881046142578,656.4484656906128 l-3.366,-1.24 s-13.995,-6.909 -13.818,-20.2 " id="svg_42"/><path class="n" d="M665.3821224365234,293.1144766769409 c-1.417,1.24 -3.189,0.8860000000000005 -10.275,0.531 c-4.252,-0.1770000000000001 -7.795,-0.3540000000000002 -9.92,-0.531 c-1.949,0 -4.783,0.1770000000000001 -6.732,2.126 c-2.657,2.48 -2.657,6.555 -2.48,7.9719999999999995 c0.1770000000000001,7.44 0.531,77.769 1.063,175.378 a7.261,7.261 0 0 1 -7.086,7.263 h0 A7.107,7.107 0 0 1 622.8661224365235,478.76847667694096 V299.13747667694093 a18.866,18.866 0 0 1 6.2,-13.286 a19.129,19.129 0 0 1 13.463,-4.429 h0.7090000000000004 L660.0661224365234,281.0684766769409 a7.045,7.045 0 0 1 7.263,6.555 C666.9761224365234,289.92547667694095 666.7991224365235,291.8744766769409 665.3821224365234,293.1144766769409 z" id="svg_43"/><path d="M472.46611254882816,494.5334788742066 a93.106,93.106 0 0 0 -28.7,-1.417 c-8.5,0.8860000000000005 -20.372,5.315 -44.11,13.995 c-10.452,3.9 -14.881,5.6690000000000005 -19.664,10.1 c-6.909,6.377 -10.1,13.995 -12.223,19.309 a80.882,80.882 0 0 0 -5.315,21.967 c-3.189,26.572 -1.771,47.653 -1.771,86.095 h0 c-0.8860000000000005,24.8 -1.24,37.2 9.212,42.693 c10.806000000000001,5.6690000000000005 27.1,1.949 36.847,-0.8860000000000005 q2.392,-59.788 4.606,-119.576 S411.5271125488281,542.1894788742065 435.7961125488281,542.1894788742065 c17.006,-8.149000000000001 34.19,-16.3 51.2,-24.447 c-18.778,3.366 -37.733,6.555 -56.511,9.92 A42.346000000000004,42.346000000000004 0 0 0 417.3731125488281,538.2894788742066 a36.541,36.541 0 0 0 -7.617,14.172 c-0.532,1.949 -0.3540000000000002,2.126 -1.063,7.086 c-1.063,7.086 -2.126,12.223 -2.48,13.641 c-3.366,15.943 2.3,52.436 -0.531,90.878 c-1.063,13.463 -2.3,17.892 1.24,22.5 c9.212,11.869 36.316,5.846 52.614,0.8860000000000005 c-1.24,-35.253 -2.657,-70.328 -3.9,-105.581 c-0.7090000000000004,-4.252 -1.772,-17.006 9.389,-25.864 c6.2,-4.783 13.641,-6.555 22.144,-8.149000000000001 c13.995,-2.48 36.67,-5.314 67.14,-3.9 c2.126,-7.263 4.429,-14.349 6.555,-21.612000000000002 Q516.4881125488281,508.5284788742066 472.46611254882816,494.5334788742066 z" id="svg_44"/><path class="l" d="M455.28310546875,408.97047252655034 " id="svg_45"/><path class="n" d="M461.4821108398437,410.7434827804566 c-4.252,-0.3540000000000002 -57.042,-3.9 -83.969,-1.417 c-4.606,0.3540000000000002 -11.692,1.24 -17.892,6.377 A28.95,28.95 0 0 0 349.70111083984375,433.2434827804566 V566.8104827804566 c4.252,-0.1770000000000001 8.68,-0.3540000000000002 12.932,-0.531 L362.45611083984375,435.54348278045654 a14.827,14.827 0 0 1 3.72,-7.795 c5.1370000000000005,-5.6690000000000005 13.818,-5.315 17.361,-5.1370000000000005 c13.109,0.3540000000000002 39.682,0 75.289,-0.531 C459.5341108398437,418.3594827804566 460.6011108398437,414.64348278045657 461.4821108398437,410.7434827804566 z" id="svg_46"/><path class="p" d="M571.8471064453125,522.3454772262573 c3.366,-31.178 6.554,-63.6 9.743,-100.089 c0.3540000000000002,-3.9 0.3540000000000002,-4.606 0.531,-5.846 a4.906,4.906 0 0 1 0.1770000000000001,-1.417 c2.48,-28.521 -2.834,-63.774 -2.834,-63.774 c-2.48,-16.121 -4.96,-25.51 -3.189,-26.041 c1.417,-0.531 3.72,5.314 9.212,13.286 c6.555,9.743 10.629,13.818 21.612000000000002,24.092 c1.24,1.24 8.68,9.389 23.03,26.218 c29.23,34.013 39.327,48.539 49.07,46.413 c2.657,-0.531 12.046,-3.72 21.789,-9.92 h0 c-2.126,-2.657 -5.314,-6.732 -9.389,-11.869 c-22.675,-27.99 -30.647,-34.19 -55.271,-62.357 c-13.109,-14.881 -26.75,-29.23 -39.327,-44.642 a91.561,91.561 0 0 0 -20.018,-18.778 a93.366,93.366 0 0 0 -21.081,-10.983 c-6.732,-0.7090000000000004 -13.641,-1.417 -20.372,-2.126 c-13.109,-0.531 -23.915,-0.3540000000000002 -31.71,0 c-17.892,0.7090000000000004 -23.207,1.949 -26.041,3.012 a62.441,62.441 0 0 0 -24.092,13.818 c-23.561,21.081 -43.579,37.733 -57.928,49.6 c-24.092,19.664 -58.991,47.476 -54.208,56.865 c0.7090000000000004,1.417 1.949,1.417 9.212,6.909 c4.96,3.9 8.858,7.263 11.16,9.389 c36.139,-30.115 72.277,-60.408 108.593,-90.523 a438.185,438.185 0 0 1 -7.795,82.729 a428.443,428.443 0 0 1 -26.927,88.4 C480.9691064453125,503.5674772262573 526.3191064453125,512.9574772262573 571.8471064453125,522.3454772262573 z" id="svg_47"/><path class="m" d="M622.5121120605469,461.2294752120972 L491.4211120605469,461.76047521209716 l0.1770000000000001,92.472 l49.07,0.3540000000000002 s12.046,-61.825 88.929,-68.734 z" id="svg_48"/><path class="n" d="M491.4231140136719,494.1784809494019 V461.7604809494019 c0,-17.184 0,-23.561 4.252,-29.407 c6.023,-7.9719999999999995 16.475,-9.743 22.675,-10.275 c34.721000000000004,0 69.443,0 104.164,0.1770000000000001 c2.3,-3.543 4.429,-8.149000000000001 2.834,-11.338000000000001 c-1.949,-3.72 -11.338000000000001,-3.72 -29.938,-3.366 c-24.447,0.531 -26.927,0.531 -34.367,0.531 c-10.983,0 -10.806000000000001,-0.531 -19.309,-0.3540000000000002 c-10.1,0.1770000000000001 -17.538,0.3540000000000002 -26.218,2.3 c-10.983,2.3 -20.018,4.252 -27.458,11.515 c-10.1,9.92 -10.983,23.561 -11.16,29.053 V553.5234809494018 c-1.063,0 -2.657,0.1770000000000001 -4.606,0.1770000000000001 c-2.834,0.1770000000000001 -4.252,0.1770000000000001 -4.252,0.1770000000000001 c-4.429,0.7090000000000004 -7.263,5.315 -9.035,8.326 a27.928,27.928 0 0 0 -2.48,5.1370000000000005 c10.452,-0.3540000000000002 20.9,-0.7090000000000004 31.533,-1.063 h48.539 c1.417,-3.9 2.657,-7.795 4.074,-11.692 l-49.07,-0.3540000000000002 C492.66211401367184,528.0144809494019 492.1301140136719,507.99648094940187 491.4231140136719,494.1784809494019 z" id="svg_49"/><ellipse class="i" cx="633.84912109375" cy="610.9214582443237" rx="99.55799865722656" ry="126.30799865722656" id="svg_50"/><path class="l" d="M541.0231018066406,613.7554918136597 c28.344,-0.8860000000000005 56.688,-1.948 85.032,-2.834 C597.7111018066406,611.8074918136597 569.3671018066407,612.6924918136597 541.0231018066406,613.7554918136597 z" id="svg_51"/><path d="M365.8221069335938,553.1704755783081 " id="svg_52"/><path class="n" d="M476.71811315917967,565.747480583191 c-0.7090000000000004,43.756 -1.417,87.335 -1.949,131.091 h16.652 c0.1770000000000001,-43.579 0.3540000000000002,-86.98 0.531,-130.559 C486.81511315917965,566.1014805831909 481.6781131591797,565.9244805831909 476.71811315917967,565.747480583191 z" id="svg_53"/><path class="h" d="M485.2211005859375,711.5414620285035 s0.531,-8.149000000000001 5.491,-12.4 s10.452,-1.063 10.452,-1.063 s4.252,2.3 6.2,9.035 s0,13.995 0,13.995 s-2.657,6.732 -5.6690000000000005,8.149000000000001 s-4.96,1.948 -8.857,0.7090000000000004 s-6.378,-8.5 -6.378,-8.5 S484.69010058593744,715.2614620285034 485.2211005859375,711.5414620285035 z" id="svg_54"/><ellipse class="i" cx="496.7361145019531" cy="712.0734720230103" rx="18.777999877929688" ry="20.371999740600586" id="svg_55"/><path class="n" d="M351.1181108398438,561.850474357605 c-0.531,43.756 -0.8860000000000005,87.335 -1.417,131.091 h11.692 c0.1770000000000001,-43.579 0.1770000000000001,-86.98 0.3540000000000002,-130.559 z" id="svg_56"/><path class="n" d="M351.82710571289067,689.9294649581909 c5.314,3.366 10.629,6.732 15.766,10.1 c1.24,-2.3 2.48,-4.606 3.9,-6.732 c-5.314,-3.189 -10.806000000000001,-6.2 -16.121,-9.389 C354.3071057128906,685.677464958191 353.0671057128907,687.8064649581909 351.82710571289067,689.9294649581909 z" id="svg_57"/><path class="q" d="M460.7741119384766,226.32848033905032 " id="svg_58"/><path class="o" d="M375.2151000976562,684.0834915695191 s-38.8,-3.366 -38.8,9.035 c0,12.578 21.789,9.212 21.789,9.212 l33.658,0.3540000000000002 V691.1694915695191 z" id="svg_59"/><path class="r" d="M448.01910400390625,255.73547954559325 " id="svg_60"/><path class="s" d="M709.1381114501953,343.6024702072143 a60.128,60.128 0 0 1 12.755,0.8860000000000005 c6.732,1.24 9.035,2.834 13.641,2.48 c5.6690000000000005,-0.3540000000000002 8.149000000000001,-3.189 12.4,-4.96 c5.1370000000000005,-2.126 13.286,-3.012 26.927,3.543 c0,3.012 0.1770000000000001,6.023 0.1770000000000001,9.035 c-11.515,-6.909 -19.309,-6.732 -24.447,-5.315 c-6.732,2.126 -9.566,7.086 -16.475,6.2 c-3.189,-0.3540000000000002 -4.96,-1.771 -12.4,-3.012 a32.992,32.992 0 0 0 -5.846,-0.7090000000000004 c-3.9,0 -6.023,0.8860000000000005 -6.909,-0.3540000000000002 c-0.532,-0.531 0,-1.24 0.1770000000000001,-3.543 A16.932,16.932 0 0 0 709.1381114501953,343.6024702072143 z" id="svg_61"/><path class="t" d="M708.6070953369141,351.396478263855 a62.325,62.325 0 0 1 12.932,0.8860000000000005 c6.732,1.24 9.035,2.834 13.818,2.48 c5.846,-0.3540000000000002 8.326,-3.366 12.4,-5.1370000000000005 c5.1370000000000005,-2.3 13.463,-3.189 27.281,4.074 v9.035 c-11.16,-6.377 -19.132,-6.555 -24.624,-5.492 c-7.263,1.594 -8.5,5.1370000000000005 -16.475,5.492 c-8.149000000000001,0.3540000000000002 -9.389,-3.366 -18.424,-2.834 c-1.594,0.1770000000000001 -5.846,0.531 -6.732,-1.417 a7.413,7.413 0 0 1 -0.1770000000000001,-2.48 A39.646,39.646 0 0 0 708.6070953369141,351.396478263855 z" id="svg_62"/><path class="u" d="M708.6070953369141,359.0144774093628 a62.32,62.32 0 0 1 12.932,0.8860000000000005 c6.732,1.24 9.035,2.834 13.818,2.48 c5.846,-0.3540000000000002 8.326,-3.189 12.4,-4.96 c5.1370000000000005,-2.126 13.463,-3.012 27.281,3.9 v8.68 c-11.16,-6.2 -19.132,-6.377 -24.624,-5.314 c-7.263,1.417 -8.5,4.96 -16.475,5.1370000000000005 c-8.149000000000001,0.3540000000000002 -9.389,-3.189 -18.424,-2.657 c-1.594,0.1770000000000001 -5.846,0.531 -6.732,-1.417 a7.413,7.413 0 0 1 -0.1770000000000001,-2.48 A33.744,33.744 0 0 0 708.6070953369141,359.0144774093628 z" id="svg_63"/><path class="v" d="M708.6070953369141,366.1004759445191 a62.32,62.32 0 0 1 12.932,0.8860000000000005 c6.732,1.24 9.035,2.834 13.818,2.48 c5.846,-0.3540000000000002 8.326,-3.189 12.4,-4.96 c5.1370000000000005,-2.126 13.463,-3.011 27.281,3.9 v8.68 c-11.16,-6.2 -19.132,-6.377 -24.624,-5.315 c-7.263,1.417 -8.5,4.96 -16.475,5.1370000000000005 c-8.149000000000001,0.3540000000000002 -9.389,-3.189 -18.424,-2.657 c-1.594,0.1770000000000001 -5.846,0.531 -6.732,-1.417 a7.412,7.412 0 0 1 -0.1770000000000001,-2.48 A33.743,33.743 0 0 0 708.6070953369141,366.1004759445191 z" id="svg_64"/><path class="w" d="M708.6070953369141,373.1864744796753 a62.321,62.321 0 0 1 12.932,0.8860000000000005 c6.732,1.24 9.035,2.834 13.818,2.48 c5.846,-0.3540000000000002 8.326,-3.189 12.4,-4.96 c5.1370000000000005,-2.126 13.463,-3.012 27.281,3.9 v8.68 c-11.16,-6.2 -19.132,-6.377 -24.624,-5.315 c-7.263,1.417 -8.5,4.96 -16.475,5.1370000000000005 c-8.149000000000001,0.3540000000000002 -9.389,-3.189 -18.424,-2.657 c-1.594,0.1770000000000001 -5.846,0.531 -6.732,-1.417 a7.411,7.411 0 0 1 -0.1770000000000001,-2.48 A33.745,33.745 0 0 0 708.6070953369141,373.1864744796753 z" id="svg_65"/><path class="x" d="M708.7841217041016,380.2724730148316 a62.318,62.318 0 0 1 12.932,0.8860000000000005 c6.732,1.24 9.035,2.834 13.818,2.48 c5.846,-0.3540000000000002 8.326,-3.189 12.4,-4.96 c5.1370000000000005,-2.126 13.463,-3.012 27.281,3.9 v8.68 c-11.16,-6.2 -19.132,-6.377 -24.624,-5.314 c-7.263,1.417 -8.5,4.96 -16.475,5.1370000000000005 c-8.149000000000001,0.3540000000000002 -9.389,-3.189 -18.424,-2.657 c-1.594,0.1770000000000001 -5.846,0.531 -6.732,-1.417 a7.408,7.408 0 0 1 -0.1770000000000001,-2.48 z" id="svg_66"/><path class="h" d="M703.2920928955078,473.27548253631596 V343.4244825363159 h6.023 V473.27548253631596 c-0.3540000000000002,1.949 -1.771,3.189 -3.189,3.012 A3.5860000000000003,3.5860000000000003 0 0 1 703.2920928955078,473.27548253631596 z" id="svg_67"/><path class="g" d="M713.3901168212891,439.0854780197144 s4.074,15.412 0,15.766 a55.125,55.125 0 0 0 -7.086,1.063 s-8.857,-10.629 -4.783,-11.692 l1.594,-1.771 z" id="svg_68"/><path class="y" d="M466.9741032714844,194.79647966766356 c-6.555,2.3 -5.492,21.081 -4.96,33.658 a115.548,115.548 0 0 0 10.275,42.162 c5.1370000000000005,-1.063 12.046,-2.657 20.2,-5.1370000000000005 c7.9719999999999995,-2.48 11.869,-3.72 13.286,-5.315 C516.3991032714844,247.58247966766356 479.5521032714844,190.19047966766357 466.9741032714844,194.79647966766356 z" id="svg_69"/><path class="g" d="M503.6441130371094,274.51347917938233 c-0.531,-1.063 -0.8860000000000005,-3.9 -1.417,-9.566 c-0.3540000000000002,-2.834 -0.531,-4.96 -0.7090000000000004,-6.555 c-11.338000000000001,3.72 -17.715,1.771 -21.081,0 c-15.943,-8.68 -18.424,-43.756 -3.012,-87.512 c3.9,-1.772 21.79,-9.743 39.859,-2.126 c20.727,8.857 33.481,34.721000000000004 27.99,62.534 a109.6,109.6 0 0 1 -9.566,22.144 a35.459,35.459 0 0 0 -1.063,14.881 c0.532,3.543 1.24,4.429 0.7090000000000004,6.023 C532.5221130371094,281.77647917938236 507.72211303710935,282.4854791793823 503.6441130371094,274.51347917938233 z" id="svg_70"/><path d="M474.9461033935547,194.44247814178465 c1.24,-3.9 2.48,-7.9719999999999995 3.9,-11.869 V194.0874781417847 h11.869 c0.531,-1.949 1.063,-4.074 1.594,-6.023 c0.3540000000000002,1.949 0.7090000000000004,4.074 0.8860000000000005,6.023 l13.641,1.24 a17.855,17.855 0 0 1 8.857,7.9719999999999995 a17.032,17.032 0 0 1 1.594,8.326 c-0.3540000000000002,7.795 -1.594,28.875 -3.9,57.042 c12.755,-6.555 25.332,-13.286 38.087,-19.841 a208.089,208.089 0 0 0 1.772,-29.407 a204.615,204.615 0 0 0 -3.72,-36.138 c-1.24,-2.657 -11.16,-23.207 -33.658,-27.99 c-19.664,-4.252 -39.15,5.6690000000000005 -47.653,18.6 c-0.7090000000000004,1.063 -9.035,13.641 -4.429,18.955 C466.4431033935547,196.03647814178464 472.82010339355463,194.97347814178465 474.9461033935547,194.44247814178465 z" id="svg_71"/><circle class="z" cx="505.594096660614" cy="227.0374665260315" r="5.492000102996826" id="svg_72"/><path class="z" d="M472.8211076660157,227.03747899627683 c0,2.657 -2.834,3.72 -3.9,3.9 c-0.531,0 -1.417,0 -1.417,-0.1770000000000001 v-1.594 c-0.1770000000000001,-1.24 0,-1.771 -0.1770000000000001,-3.189 v-2.126 c0.3540000000000002,-0.531 1.594,-0.531 1.771,-0.531 A3.724,3.724 0 0 1 472.8211076660157,227.03747899627683 z" id="svg_73"/><path d="M473.5291046142578,214.9914774093628 a8.51,8.51 0 0 0 5.492,1.771 a9.277,9.277 0 0 0 5.6690000000000005,-1.771 a19.166,19.166 0 0 1 -4.429,0.7090000000000004 a15.424,15.424 0 0 1 -3.366,-0.1770000000000001 C474.5921046142578,215.3454774093628 473.5291046142578,214.8134774093628 473.5291046142578,214.9914774093628 z" id="svg_74"/><path d="M493.3701065673828,206.84248027801516 h8.68 c2.126,1.063 3.366,1.594 3.189,1.771 c0,0.1770000000000001 -1.063,-0.1770000000000001 -3.012,-0.8860000000000005 a16.808,16.808 0 0 0 -4.252,0 a16.211,16.211 0 0 0 -3.012,0.1770000000000001 c-0.7090000000000004,0.1770000000000001 -1.24,0.3540000000000002 -1.594,0 C493.01610656738285,207.72848027801513 493.19310656738276,207.19648027801514 493.3701065673828,206.84248027801516 z" id="svg_75"/><path d="M484.8661062011719,207.0194761276245 H476.19010620117183 a13.139,13.139 0 0 0 -3.189,1.594 c0,0.1770000000000001 1.063,-0.1770000000000001 3.012,-0.8860000000000005 a16.808,16.808 0 0 1 4.252,0 a19.257,19.257 0 0 1 3.189,0.1770000000000001 c0.7090000000000004,0.1770000000000001 1.24,0.3540000000000002 1.594,0 C485.04410620117187,207.7284761276245 484.8661062011719,207.19647612762452 484.8661062011719,207.0194761276245 z" id="svg_76"/><path d="M505.5931136474609,214.8134739303589 a11.1,11.1 0 0 1 -6.555,1.949 a11.335,11.335 0 0 1 -6.732,-1.949 a37.09,37.09 0 0 0 5.1370000000000005,0.8860000000000005 a23.96,23.96 0 0 0 4.075,-0.1770000000000001 C504.17611364746097,215.1684739303589 505.416113647461,214.63647393035887 505.5931136474609,214.8134739303589 z" id="svg_77"/><path class="aa" d="M479.1981059570312,242.0934736251831 c-0.3540000000000002,0.531 0.8860000000000005,2.48 2.3,3.366 c2.834,1.949 6.732,0.531 9.212,-0.3540000000000002 c1.594,-0.531 2.834,-1.417 5.314,-3.012 c1.063,-0.7090000000000004 1.417,-1.063 1.417,-1.24 c0,-0.3540000000000002 -1.063,-0.531 -5.6690000000000005,-0.1770000000000001 c-9.566,0.7090000000000004 -9.92,1.417 -11.692,1.24 C479.9061059570313,241.9174736251831 479.3711059570312,241.74047362518309 479.1981059570312,242.0934736251831 z" id="svg_78"/><path class="r" d="M486.99310632324216,217.2944746017456 c0,1.594 0,3.189 -0.1770000000000001,5.1370000000000005 c-0.1770000000000001,1.772 -0.3540000000000002,3.543 -0.531,4.96 c-0.3540000000000002,0 -3.72,0.531 -3.9,1.949 v0.3540000000000002 c0.531,1.594 3.189,2.48 3.72,2.657 " id="svg_79"/><path class="aa" d="M478.48910827636723,242.097479057312 c2.657,0 5.314,-0.1770000000000001 8.149000000000001,-0.3540000000000002 c3.72,-0.3540000000000002 7.263,-0.7090000000000004 10.452,-1.063 a49.184,49.184 0 0 1 -4.783,-1.594 a7.188,7.188 0 0 0 -3.012,-0.8860000000000005 a5.377,5.377 0 0 0 -3.012,1.063 a3.541,3.541 0 0 0 -2.48,-1.063 A4.282,4.282 0 0 0 480.7891082763672,239.43747905731203 A30.775,30.775 0 0 0 478.48910827636723,242.097479057312 z" id="svg_80"/><path class="ab" d="M491.4211120605469,231.9974744796753 s9.389,3.189 10.452,9.389 " id="svg_81"/><path class="m" d="M657.7651180419922,278.4114791183472 a16.15,16.15 0 0 0 -3.012,9.743 a15.07,15.07 0 0 0 3.366,8.857 A130.328,130.328 0 0 0 686.1091180419921,299.13347911834717 a141.278,141.278 0 0 0 25.332,-2.834 a13.206,13.206 0 0 0 2.834,-9.389 a13,13 0 0 0 -3.366,-7.263 a75.635,75.635 0 0 0 -29.053,-5.314 A78.28,78.28 0 0 0 657.7651180419922,278.4114791183472 z" id="svg_82"/><path class="ac" d="M1871.0631072998046,435.1884717941284 " id="svg_83"/></g></g></svg>