<svg xmlns="http://www.w3.org/2000/svg" width="30.804" height="30.804" viewBox="0 0 30.804 30.804"><defs><style>.a{fill:#fff;}</style></defs><g transform="translate(0)"><g transform="translate(0 0)"><g transform="translate(0 0)"><path class="a" d="M30.206,24.494l-3.415-2.277-3.036-2.023a1.345,1.345,0,0,0-1.806.293L20.071,22.9a1.338,1.338,0,0,1-1.708.354,21.872,21.872,0,0,1-6.108-4.707,22.028,22.028,0,0,1-4.707-6.108A1.338,1.338,0,0,1,7.9,10.734l2.415-1.879a1.345,1.345,0,0,0,.293-1.806L8.649,4.108,6.31.6A1.345,1.345,0,0,0,4.5.192L1.8,1.81a3.3,3.3,0,0,0-1.5,1.937c-.738,2.69-.886,8.622,8.622,18.131s15.441,9.359,18.13,8.621A3.3,3.3,0,0,0,28.995,29l1.618-2.7A1.345,1.345,0,0,0,30.206,24.494Z" transform="translate(0 0)"/><path class="a" d="M283.013,62.854a9.039,9.039,0,0,1,9.029,9.029.531.531,0,0,0,1.062,0,10.1,10.1,0,0,0-10.091-10.091.531.531,0,1,0,0,1.062Z" transform="translate(-265.487 -58.074)"/><path class="a" d="M283.012,115.818a5.849,5.849,0,0,1,5.842,5.842.531.531,0,0,0,1.062,0,6.912,6.912,0,0,0-6.9-6.9.531.531,0,0,0,0,1.062Z" transform="translate(-265.486 -107.852)"/><path class="a" d="M283.013,168.785a2.659,2.659,0,0,1,2.656,2.656.531.531,0,1,0,1.062,0,3.722,3.722,0,0,0-3.718-3.718.531.531,0,1,0,0,1.062Z" transform="translate(-265.487 -157.632)"/></g></g></g></svg>