<svg xmlns="http://www.w3.org/2000/svg" width="24.267" height="38.5" viewBox="0 0 24.267 38.5"><defs><style>.a{opacity:0.742;}.b{fill:#fff;}</style></defs><g class="a" transform="translate(-82.222)"><g transform="translate(82.222 0)"><path class="b" d="M105.574,17.026,89.463.939a3.1,3.1,0,0,0-4.448,0L83.137,2.793a3.026,3.026,0,0,0-.915,2.224,3.164,3.164,0,0,0,.915,2.249L95.146,19.25,83.136,31.26a3.027,3.027,0,0,0-.914,2.224,3.164,3.164,0,0,0,.914,2.249l1.878,1.853a3.162,3.162,0,0,0,4.448,0L105.574,21.5a3.164,3.164,0,0,0,.915-2.249A3.027,3.027,0,0,0,105.574,17.026Z" transform="translate(-82.222 0)"/></g></g></svg>