<svg xmlns="http://www.w3.org/2000/svg" xmlns:xlink="http://www.w3.org/1999/xlink" width="20.552" height="39.387" viewBox="0 0 20.552 39.387"><defs><style>.a{fill:#86007d;}.a,.b,.c,.d,.e,.f{fill-rule:evenodd;}.b{fill:#ff0018;}.c{fill:#ffa52c;}.d{fill:#ffff41;}.e{fill:#008018;}.f{fill:#0000f9;}.g{fill:url(#a);}</style><linearGradient id="a" x1="-7.991" y1="12.161" x2="-8.011" y2="12.144" gradientUnits="objectBoundingBox"><stop offset="0" stop-opacity="0.502"/><stop offset="0.599" stop-color="#120311" stop-opacity="0.012"/><stop offset="1" stop-opacity="0"/></linearGradient></defs><g transform="translate(-0.002)"><path class="a" d="M259.112,986.288a10.193,10.193,0,0,1,2.534-3.957A49.317,49.317,0,0,1,268.9,977.3c-.451-.521-.9-1.041-1.389-1.6a38.871,38.871,0,0,0-6.527,4.652,6.839,6.839,0,0,0-1.875,5.936" transform="translate(-259.012 -952.698)"/><path class="b" d="M268.99,980.3a49.341,49.341,0,0,0-7.256,5.034,10.188,10.188,0,0,0-2.534,3.958,6.469,6.469,0,0,0,1.007,2.6,14.337,14.337,0,0,1,3.333-5.034,63.99,63.99,0,0,1,6.665-5.034c-.382-.486-.8-1.007-1.215-1.528" transform="translate(-259.135 -955.701)"/><path class="c" d="M272,984.8a67.816,67.816,0,0,0-6.665,5.034A14.029,14.029,0,0,0,262,994.868a6.6,6.6,0,0,0,1.389,1.562,20.109,20.109,0,0,1,3.61-5.069,69.256,69.256,0,0,1,6-5.034,14.458,14.458,0,0,0-1-1.527" transform="translate(-260.963 -958.64)"/><path class="d" d="M275.716,989.1a76.02,76.02,0,0,0-6.006,5.034,20.113,20.113,0,0,0-3.61,5.069,6.907,6.907,0,0,0,1.736,1.076,28.054,28.054,0,0,1,3.4-4.652,67.839,67.839,0,0,1,5.45-5.034c-.347-.486-.66-1.007-.972-1.493" transform="translate(-263.639 -961.447)"/><path class="e" d="M279.952,993.4c-1.909,1.6-3.715,3.263-5.45,5.034a28.055,28.055,0,0,0-3.4,4.652,7.1,7.1,0,0,0,2.048.521,35.655,35.655,0,0,1,2.777-3.715,57.757,57.757,0,0,1,5.1-5c-.382-.521-.729-1.007-1.076-1.493" transform="translate(-266.903 -964.253)"/><path class="f" d="M284.88,997.7a57.812,57.812,0,0,0-5.1,5,32.321,32.321,0,0,0-2.777,3.715,7.346,7.346,0,0,0,2.465-.208c.521-.729,1.076-1.389,1.632-2.048a46.208,46.208,0,0,1,4.86-4.9c-.347-.555-.729-1.076-1.076-1.562" transform="translate(-270.755 -967.061)"/><path class="g" d="M265.256,992.051a35.643,35.643,0,0,1,2.777-3.715,57.854,57.854,0,0,1,5.1-5c.347.521.729,1.007,1.076,1.527a49.76,49.76,0,0,0-4.86,4.9c-.555.66-1.076,1.354-1.632,2.048a6.536,6.536,0,0,1-1.84.243,3.761,3.761,0,0,1-.621,0Zm-2.048-.521a28.054,28.054,0,0,1,3.4-4.652,67.759,67.759,0,0,1,5.45-5.034c.347.486.694,1.007,1.076,1.493a57.858,57.858,0,0,0-5.1,5,32.326,32.326,0,0,0-2.777,3.715,7.123,7.123,0,0,1-2.048-.521Zm-1.736-1.076a20.113,20.113,0,0,1,3.61-5.068,69.225,69.225,0,0,1,6.006-5.034c.313.486.66,1.007,1.007,1.493-1.909,1.6-3.715,3.263-5.45,5.034a28.044,28.044,0,0,0-3.4,4.652,6.526,6.526,0,0,1-1.771-1.076Zm-1.389-1.562a14.333,14.333,0,0,1,3.333-5.034,63.937,63.937,0,0,1,6.665-5.034c.347.521.694,1.007,1.007,1.493a76.09,76.09,0,0,0-6.006,5.034,20.114,20.114,0,0,0-3.61,5.069,6.514,6.514,0,0,1-1.389-1.528Zm-.729-1.6c-.1-.347-.174-.66-.243-1.007a10.192,10.192,0,0,1,2.534-3.958A49.359,49.359,0,0,1,268.9,977.3c.417.521.833,1.041,1.18,1.528a67.808,67.808,0,0,0-6.665,5.034,14.029,14.029,0,0,0-3.333,5.034,6.655,6.655,0,0,1-.729-1.6Zm1.632-6.943a40.974,40.974,0,0,1,6.526-4.652c.486.555.937,1.076,1.389,1.6a49.345,49.345,0,0,0-7.256,5.034,10.192,10.192,0,0,0-2.534,3.958,6.839,6.839,0,0,1,1.875-5.936Z" transform="translate(-259.012 -952.698)"/><path class="a" d="M270.242,932.977a9.451,9.451,0,0,1,2.083,6.078c0,2.954-1.076,5.467-2.6,6.587-.313.2-.59.407-.9.645a12.659,12.659,0,0,0,1.632-.34,13.792,13.792,0,0,0,4.582-3.158,21,21,0,0,0,2.187-2.716,39.679,39.679,0,0,0,4.617-9.711c-.729-3.192-1.527-6.18-2.4-8.862a45.349,45.349,0,0,0-2.916-7.13,27.849,27.849,0,0,0-3.194-5.093c-1.215-1.392-2.534-2.377-4.1-2.377-1.84,0-3.541,1.256-4.756,3.26a15.435,15.435,0,0,0-1.979,7.877,18.384,18.384,0,0,0,.694,4.957,12.2,12.2,0,0,0,1.389,3.056,28.259,28.259,0,0,0,2.777,3.565c.972,1.12,1.979,2.207,2.881,3.361" transform="translate(-261.289 -906.9)"/></g></svg>