<svg xmlns="http://www.w3.org/2000/svg" width="20.613" height="39.637" viewBox="0 0 20.613 39.637"><defs><style>.a{fill:#86007d;}.a,.b,.c,.d,.e,.f{fill-rule:evenodd;}.b{fill:#ff0018;}.c{fill:#ffa52c;}.d{fill:#ffff41;}.e{fill:#008018;}.f{fill:#0000f9;}</style></defs><g transform="translate(-664.5 -365.5)"><path class="a" d="M685.02,399.449A6.8,6.8,0,0,0,683,393.4a43,43,0,0,0-6.5-4.7c-.5.6-.9,1.1-1.4,1.6a52.334,52.334,0,0,1,7.3,5,10.634,10.634,0,0,1,2.263,4"/><path class="b" d="M675.2,390.3l-1.2,1.5a64.779,64.779,0,0,1,6.7,5,13.27,13.27,0,0,1,3.3,5.112,5.88,5.88,0,0,0,1.011-2.466A11.41,11.41,0,0,0,682.5,395.2c-2.3-1.7-4.8-3.4-7.3-4.9"/><path class="c" d="M674,391.9a13.025,13.025,0,0,0-1,1.5,72.251,72.251,0,0,1,6,5,18.153,18.153,0,0,1,3.6,5.1,7.829,7.829,0,0,0,1.46-1.649,13.84,13.84,0,0,0-3.244-4.974,76.921,76.921,0,0,0-6.669-4.976"/><path class="d" d="M673,393.4a13.029,13.029,0,0,1-1,1.5c1.9,1.6,3.7,3.3,5.5,5a26.854,26.854,0,0,1,3.4,4.7,6.192,6.192,0,0,0,1.7-1.1,20.444,20.444,0,0,0-3.6-5.1c-1.9-1.8-4-3.4-6-5"/><path class="e" d="M672,394.9a14.331,14.331,0,0,1-1.1,1.5,60.181,60.181,0,0,1,5.1,5c1,1.2,1.9,2.4,2.8,3.7a7.271,7.271,0,0,0,2.119-.454,31.518,31.518,0,0,0-3.351-4.774A65.839,65.839,0,0,0,672,394.9"/><path class="f" d="M670.9,396.4c-.3.5-.7,1-1.1,1.6a45.348,45.348,0,0,1,4.9,4.9c.6.7,1.1,1.3,1.6,2a6.883,6.883,0,0,0,2.5.2,32.7,32.7,0,0,0-2.8-3.7,48.072,48.072,0,0,0-5.1-5"/><path class="a" d="M676.1,391.8c.9-1.2,1.9-2.2,2.9-3.4a34.393,34.393,0,0,0,2.8-3.6,10.908,10.908,0,0,0,1.4-3.1,16.786,16.786,0,0,0,.7-5,14.553,14.553,0,0,0-2-7.9c-1.2-2-2.9-3.3-4.8-3.3-1.6,0-2.9,1-4.1,2.4a33.594,33.594,0,0,0-3.2,5.1,48.126,48.126,0,0,0-2.9,7.1,87.586,87.586,0,0,0-2.4,8.9,39.2,39.2,0,0,0,4.6,9.7,19.871,19.871,0,0,0,2.2,2.7,16.463,16.463,0,0,0,4.8,3.5,7.127,7.127,0,0,0,1.434.223c-.3-.2-.634-.623-.935-.823-1.5-1.1-2.6-3.6-2.6-6.6a9.472,9.472,0,0,1,2.1-5.9"/></g></svg>