<svg xmlns="http://www.w3.org/2000/svg" width="52.07" height="53.07" viewBox="0 0 52.07 53.07"><defs><style>.a{fill:#fff;}</style></defs><g transform="translate(-0.002)"><path class="a" d="M45.055,0H7.019A7.085,7.085,0,0,0,0,7.151V45.918A7.085,7.085,0,0,0,7.019,53.07h18.76l.032-18.964H20.976a1.152,1.152,0,0,1-1.141-1.158l-.023-6.113a1.152,1.152,0,0,1,1.141-1.167h4.825V19.761c0-6.855,4.108-10.587,10.107-10.587h4.923a1.152,1.152,0,0,1,1.141,1.163v5.154a1.152,1.152,0,0,1-1.14,1.163H37.788c-3.263,0-3.895,1.58-3.895,3.9v5.114h7.169a1.155,1.155,0,0,1,1.133,1.3l-.711,6.113a1.149,1.149,0,0,1-1.133,1.026H33.925L33.893,53.07H45.056a7.085,7.085,0,0,0,7.016-7.151V7.151A7.085,7.085,0,0,0,45.055,0Z"/></g></svg>