<svg xmlns="http://www.w3.org/2000/svg" width="49.804" height="37.353" viewBox="0 0 49.804 37.353"><defs><style>.a{fill:#fff;}</style></defs><g transform="translate(0 -64)"><g transform="translate(0 64)"><g transform="translate(0 0)"><path class="a" d="M7.281,67.031C14.116,72.82,26.11,83,29.636,86.179a2.082,2.082,0,0,0,3.012,0C36.176,83,48.17,72.82,55.006,67.031a1.037,1.037,0,0,0,.146-1.432A4.12,4.12,0,0,0,51.895,64h-41.5a4.12,4.12,0,0,0-3.257,1.6A1.037,1.037,0,0,0,7.281,67.031Z" transform="translate(-6.241 -64)"/><path class="a" d="M49.2,126.508a1.033,1.033,0,0,0-1.106.15c-7.58,6.426-17.255,14.663-20.3,17.406a4.2,4.2,0,0,1-5.792,0c-3.244-2.923-14.109-12.159-20.3-17.4A1.038,1.038,0,0,0,0,127.45v26.094a4.154,4.154,0,0,0,4.15,4.15h41.5a4.154,4.154,0,0,0,4.15-4.15V127.45A1.037,1.037,0,0,0,49.2,126.508Z" transform="translate(0 -120.341)"/></g></g></g></svg>