<svg xmlns="http://www.w3.org/2000/svg" width="53.074" height="53.074" viewBox="0 0 53.074 53.074"><defs><style>.a{fill:#fff;}</style></defs><path class="a" d="M159.856,138.994a5.046,5.046,0,0,0-2.892-2.892,8.431,8.431,0,0,0-2.829-.524c-1.607-.073-2.089-.089-6.158-.089s-4.551.015-6.158.089a8.436,8.436,0,0,0-2.829.525,5.048,5.048,0,0,0-2.892,2.892,8.434,8.434,0,0,0-.524,2.83c-.073,1.607-.089,2.089-.089,6.158s.016,4.55.089,6.158a8.431,8.431,0,0,0,.524,2.829,5.046,5.046,0,0,0,2.892,2.892,8.421,8.421,0,0,0,2.83.525c1.607.073,2.088.089,6.157.089s4.551-.015,6.158-.089a8.421,8.421,0,0,0,2.83-.525,5.046,5.046,0,0,0,2.892-2.892,8.439,8.439,0,0,0,.525-2.829c.073-1.607.089-2.089.089-6.158s-.015-4.551-.089-6.158A8.421,8.421,0,0,0,159.856,138.994Zm-11.879,16.811a7.825,7.825,0,1,1,7.825-7.825A7.825,7.825,0,0,1,147.977,155.805Zm8.134-14.13a1.829,1.829,0,1,1,1.829-1.829A1.829,1.829,0,0,1,156.111,141.675Zm0,0" transform="translate(-121.44 -121.444)"/><path class="a" d="M217.159,212.079A5.079,5.079,0,1,1,212.079,207,5.079,5.079,0,0,1,217.159,212.079Zm0,0" transform="translate(-185.542 -185.542)"/><path class="a" d="M49.246,0H3.828A3.828,3.828,0,0,0,0,3.828V49.246a3.828,3.828,0,0,0,3.828,3.828H49.246a3.828,3.828,0,0,0,3.828-3.828V3.828A3.828,3.828,0,0,0,49.246,0ZM41.683,32.819a11.18,11.18,0,0,1-.708,3.7,7.792,7.792,0,0,1-4.457,4.457,11.187,11.187,0,0,1-3.7.708c-1.625.074-2.144.092-6.282.092s-4.657-.018-6.283-.092a11.187,11.187,0,0,1-3.7-.708A7.792,7.792,0,0,1,12.1,36.518a11.177,11.177,0,0,1-.708-3.7c-.075-1.625-.092-2.144-.092-6.283s.017-4.657.092-6.282a11.181,11.181,0,0,1,.708-3.7A7.8,7.8,0,0,1,16.556,12.1a11.19,11.19,0,0,1,3.7-.708c1.625-.074,2.144-.092,6.282-.092s4.657.018,6.282.092a11.192,11.192,0,0,1,3.7.707,7.794,7.794,0,0,1,4.457,4.457,11.179,11.179,0,0,1,.709,3.7c.074,1.625.092,2.144.092,6.282S41.757,31.194,41.683,32.819Zm0,0"/></svg>