<svg xmlns="http://www.w3.org/2000/svg" width="31.658" height="29.435" viewBox="0 0 31.658 29.435"><defs><style>.a{fill:#fff;}</style></defs><g transform="translate(0 -1.826)"><g transform="translate(0 1.826)"><path class="a" d="M31.606,10.6c-.462-5.086-4.062-8.777-8.568-8.777a8.517,8.517,0,0,0-7.3,4.2,8.208,8.208,0,0,0-7.122-4.2c-4.5,0-8.106,3.69-8.567,8.777a9.05,9.05,0,0,0,.269,3.335,14.306,14.306,0,0,0,4.383,7.314L15.735,31.261,26.953,21.253a14.308,14.308,0,0,0,4.383-7.315A9.07,9.07,0,0,0,31.606,10.6Zm-1.455,3.056a13.084,13.084,0,0,1-4.012,6.688l-10.4,9.276L5.524,20.35a13.093,13.093,0,0,1-4.016-6.691A7.907,7.907,0,0,1,1.254,10.8l.009-.061c.4-4.456,3.489-7.691,7.357-7.691a7.137,7.137,0,0,1,6.558,4.576l.561,1.329L16.3,7.619a7.356,7.356,0,0,1,6.739-4.575c3.867,0,6.961,3.235,7.365,7.749A7.9,7.9,0,0,1,30.151,13.659Z" transform="translate(0 -1.826)"/></g></g></svg>